<?xml version="1.0" encoding="utf-8"?>
<!-- Generator: Adobe Illustrator 18.1.1, SVG Export Plug-In . SVG Version: 6.00 Build 0)  -->
<svg version="1.1"
	 id="Layer_1" xmlns:rdf="http://www.w3.org/1999/02/22-rdf-syntax-ns#" xmlns:sodipodi="http://sodipodi.sourceforge.net/DTD/sodipodi-0.dtd" xmlns:inkscape="http://www.inkscape.org/namespaces/inkscape" xmlns:dc="http://purl.org/dc/elements/1.1/" xmlns:cc="http://creativecommons.org/ns#" xmlns:svg="http://www.w3.org/2000/svg"
	 xmlns="http://www.w3.org/2000/svg" xmlns:xlink="http://www.w3.org/1999/xlink" x="0px" y="0px" viewBox="-49 141 512 512"
	 enable-background="new -49 141 512 512" xml:space="preserve">
<ellipse fill="#988F86" stroke="#FFFFFF" stroke-width="10" stroke-miterlimit="10" cx="207.8" cy="398.7" rx="248.2" ry="248.5"/>
<g display="none">
	<path display="inline" fill="#FFFFFF" d="M280.2,387c-2.6,0-4.6,2-4.6,4.7c0,2.7,2,4.7,4.6,4.7c2.6,0,4.6-2,4.6-4.7
		C284.8,389,282.7,387,280.2,387z M281.8,394.9l-1.7-2.8H279v2.8h-1v-6.5h2.5c1.6,0,2.3,0.6,2.3,1.8c0,1.2-0.7,1.7-1.7,1.8l1.9,2.9
		H281.8z"/>
	<path display="inline" fill="#FFFFFF" d="M157.1,368.6h-7v6.1h7c1.2,0,1.2-1.3,1.2-1.3V370C158.3,370,158.3,368.6,157.1,368.6z"/>
	<path display="inline" fill="#FFFFFF" d="M281.7,390.2c0-0.8-0.7-1-1.4-1H279v2h1.2C281,391.3,281.7,391.2,281.7,390.2z"/>
	<path display="inline" fill="#FFFFFF" d="M157.1,382.1h-7v6.1h7c1.2,0,1.2-1.3,1.2-1.3v-3.5C158.3,383.4,158.3,382.1,157.1,382.1z"
		/>
	<path display="inline" fill="#FFFFFF" d="M324.4,263.7c0,0,8.5-10.6,8.5-20.9c0-10.2-6.4-19.3-33.9-19.3c-25.8,0-27-12.1-91.2-12.1
		c-64.2,0-65.3,12.1-91.2,12.1c-27.5,0-33.9,9.1-33.9,19.3c0,10.2,8.5,20.9,8.5,20.9c-18.9,92.6-18.9,168.6,0,266.6
		c0,0-8.5,10.6-8.5,20.9c0,10.2,6.4,19.3,33.9,19.3c25.8,0,27,12.1,91.2,12.1c64.2,0,65.3-12.1,91.2-12.1c27.5,0,33.9-9.1,33.9-19.3
		c0-10.2-8.5-20.9-8.5-20.9C343.3,432.3,343.3,356.3,324.4,263.7z M303.9,393c0,13.3-13.2,26.7-27.1,26.7H138.7
		c-13.7-0.1-26.8-13.9-26.9-26.7v-29c0-12.6,13.2-26.7,26.9-26.7h138.1c13.9,0,27.1,12.3,27.1,26.7V393z"/>
	<path display="inline" fill="#FFFFFF" d="M268.6,343H147c-22.1,0-22.1,21-22.1,21v28.9c0,0,0,21.2,22.1,21.2h121.6
		c22.1,0,22.1-21.2,22.1-21.2V364C290.7,364,290.7,343,268.6,343z M172.1,371c0,2.6-1.5,5-3.7,6.1c-0.6,0.3-0.6,0.8,0,1.1
		c2.2,1.1,3.7,3.4,3.7,6l0,6.3c0,3.8-3.1,6.8-6.9,6.8h-29.1v-37.6h29.1c3.8,0,6.9,3.1,6.9,6.8L172.1,371z M208.6,368.3h-19.3v6h18
		v7.5h-18v6.9h19.3v8.7h-33.2v-37.6h33.2V368.3z M247.9,392.9c0,4.5-4.5,4.5-4.5,4.5h-30.9v-8.7h19.3c2.4,0,2.4-2.3,2.4-2.3v-2.3
		c0-2.3-2.4-2.3-2.4-2.3h-13.5c-5.7,0-5.7-5.6-5.7-5.6v-10.7c0-5.6,5.7-5.6,5.7-5.6h27.5v8.5h-19.6v4.5c0,1.4,1.5,1.4,1.5,1.4h15.8
		c4.5,0,4.5,4.5,4.5,4.5V392.9z M271.3,397.4h-13.8v-29.1h-9.7v-8.5h33.3v8.5h-9.8V397.4z M280.2,397.3c-3.1,0-5.8-2.4-5.8-5.6
		c0-3.2,2.7-5.6,5.8-5.6c3.1,0,5.8,2.4,5.8,5.6C285.9,394.9,283.3,397.3,280.2,397.3z"/>
</g>
<g>
	<path fill="#FFFFFF" d="M211.3,218.4c-81.2,0-147,65.8-147,147c0,110.7,146.1,224.2,146.1,224.2s147.9-113.4,147.9-224.2
		C358.4,284.2,292.5,218.4,211.3,218.4z M211.3,451.6c-47.6,0-86.2-38.6-86.2-86.2s38.6-86.2,86.2-86.2s86.2,38.6,86.2,86.2
		S259,451.6,211.3,451.6z"/>
</g>
</svg>
